<?xml version="1.0" encoding="UTF-8" standalone="no"?>
<!-- Generator: Adobe Illustrator 27.5.0, SVG Export Plug-In . SVG Version: 6.00 Build 0)  -->

<svg
   version="1.1"
   id="Layer_1"
   x="0px"
   y="0px"
   viewBox="0 0 3358.2854 3358.2854"
   xml:space="preserve"
   sodipodi:docname="12873501_18-09.svg"
   width="3358.2854"
   height="3358.2854"
   inkscape:version="1.4 (1:1.4+202410161351+e7c3feb100)"
   xmlns:inkscape="http://www.inkscape.org/namespaces/inkscape"
   xmlns:sodipodi="http://sodipodi.sourceforge.net/DTD/sodipodi-0.dtd"
   xmlns="http://www.w3.org/2000/svg"
   xmlns:svg="http://www.w3.org/2000/svg"><defs
   id="defs105">
	
	
	

		
		
	
			
			
			
			
			
			
			
			
			
			
			
			
			
			
			
			
			
			
			
			
			
			
			
			
		</defs><sodipodi:namedview
   id="namedview105"
   pagecolor="#ffffff"
   bordercolor="#000000"
   borderopacity="0.25"
   inkscape:showpageshadow="2"
   inkscape:pageopacity="0.0"
   inkscape:pagecheckerboard="0"
   inkscape:deskcolor="#d1d1d1"
   inkscape:zoom="0.101375"
   inkscape:cx="1040.6905"
   inkscape:cy="2816.2762"
   inkscape:window-width="1850"
   inkscape:window-height="1016"
   inkscape:window-x="0"
   inkscape:window-y="0"
   inkscape:window-maximized="1"
   inkscape:current-layer="Layer_1" />
<rect
   style="fill:#ffffff;stroke-width:1.25981;-inkscape-stroke:none"
   id="rect210"
   width="1025.3484"
   height="1175.3143"
   x="-1286.9169"
   y="2430.843"
   rx="10.385267"
   ry="10.385267" /><g
   id="g108"
   transform="translate(-354.85733,-320.85733)"><g
     id="g1"
     transform="matrix(0.83957133,0,0,0.83957133,354.85733,320.85733)"
     style="stroke-width:1.19108">
		<rect
   style="fill:#ffffff;stroke-width:1.19108"
   width="4000"
   height="4000"
   id="rect1"
   x="0"
   y="0" />
	</g><g
     id="g2">
		<circle
   style="fill:#fed176"
   cx="1996.261"
   cy="1919.339"
   r="1219.339"
   id="circle1" />
	</g><g
     id="g104">
		<g
   style="opacity:0.2"
   id="g3">
			<ellipse
   style="fill:#000072"
   cx="1987.626"
   cy="3470.645"
   rx="762.771"
   ry="119.355"
   id="ellipse2" />
		</g>
		<g
   id="g103">
			<g
   id="g9">
				<g
   id="g4">
					<path
   style="fill:#6f6f87"
   d="m 2775.493,2827.2 c -24.975,57.577 -77.127,113.22 -185.03,119.182 l -40.497,-219.35 -47.963,-259.847 -81.263,-439.936 c 0,0 340.841,148.507 375.269,649.081 0.43,5.693 0.752,11.494 1.074,17.348 10e-4,0 6.876,67.997 -21.59,133.522 z"
   id="path3" />
				</g>
				<g
   id="g5">
					<path
   style="fill:#f2c5a7"
   d="m 2590.463,2946.382 -40.497,-219.35 c 199.961,10.957 246.044,-50.702 246.044,-50.702 0.43,5.693 0.752,11.494 1.074,17.348 0,0 24.17,239.921 -206.621,252.704 z"
   id="path4" />
				</g>
				<g
   style="opacity:0.3"
   id="g6">
					<path
   style="fill:#000072"
   d="m 2775.493,2827.2 c -24.975,57.577 -77.127,113.22 -185.03,119.182 l -40.497,-219.35 -47.963,-259.847 53.71,-161.075 c 0,0 144.035,150.28 131.588,450.888 -1.915,46.247 40.472,81.812 85.452,70.89 0.905,-0.221 1.818,-0.449 2.74,-0.688 z"
   id="path5" />
				</g>
				<g
   id="g7">
					<path
   style="fill:#000072"
   d="m 2595.889,2749.812 c -14.746,0 -30.42,-0.42 -47.115,-1.333 l 2.344,-42.9 c 181.65,9.941 227.646,-42.056 228.086,-42.583 l -0.376,0.479 34.404,25.742 c -4.984,6.659 -50.58,60.595 -217.343,60.595 z"
   id="path6" />
				</g>
				<g
   id="g8">
					<path
   style="fill:#000072"
   d="m 2590.425,2967.864 c -10.293,0 -19.223,-7.349 -21.113,-17.583 l -169.683,-919.106 c -1.44,-7.813 1.543,-15.781 7.764,-20.723 6.221,-4.942 14.653,-6.06 21.943,-2.876 3.74,1.631 92.603,41.079 185.317,145.718 84.912,95.83 189.19,267.085 203.882,538.765 0.913,9.941 9.404,121.172 -58.213,200.22 -39.453,46.128 -96.211,71.548 -168.696,75.552 -0.4,0.023 -0.8,0.033 -1.201,0.033 z m -140.288,-899.8 157.886,855.225 c 51.167,-6.201 91.294,-25.908 119.463,-58.726 57.407,-66.87 48.34,-167.783 48.242,-168.794 -0.034,-0.308 -0.059,-0.654 -0.078,-0.962 -13.935,-259.57 -112.729,-422.251 -193.159,-513.018 -50.542,-57.045 -99.897,-93.339 -132.354,-113.725 z"
   id="path7" />
				</g>
			</g>
			<g
   id="g20">
				<g
   id="g10">
					<path
   style="fill:#6f6f87"
   d="m 2512.906,3491.266 h -344.44 c -51.024,0 -93.079,-39.96 -95.71,-90.877 l -15.898,-306.199 c 0,0 -17.456,4.243 -68.587,4.297 h -0.644 c -51.615,0 -69.232,-4.297 -69.232,-4.297 l -15.898,306.199 c -2.632,50.917 -44.687,90.877 -95.711,90.877 h -344.44 c -69.662,0 -116.013,-72.025 -87.923,-134.22 0.859,-1.987 1.826,-3.974 2.9,-5.962 31.796,-59.349 104.304,-85.989 104.304,-85.989 -79.544,-157.745 -102.747,-338.263 -109.46,-427.153 -2.632,-34.642 -2.793,-55.375 -2.793,-55.375 0,0 251.361,140.129 616.855,140.129 h 2.793 c 365.494,0 616.855,-140.129 616.855,-140.129 0,0 -0.107,19.873 -2.632,53.28 -6.552,88.084 -29.486,270.267 -109.621,429.248 0,0 72.508,26.64 104.304,85.989 33.946,63.431 -13.104,140.182 -85.022,140.182 z"
   id="path9" />
				</g>
				<g
   style="opacity:0.3"
   id="g11">
					<path
   style="fill:#000072"
   d="m 2602.118,3357.046 c 0,0 -48.5,65.15 -259.686,65.15 -146.193,0 -182.922,-119.141 -191.683,-192.473 -3.725,-31.177 12.322,-61.451 40.162,-75.969 51.376,-26.792 136.14,-80.541 177.37,-159.983 7.697,-14.831 -7.73,-31.194 -23.082,-24.597 -58.641,25.199 -180.002,65.453 -356.928,65.453 -176.926,0 -298.288,-40.253 -356.928,-65.453 -15.352,-6.597 -30.779,9.766 -23.082,24.597 41.231,79.442 125.995,133.191 177.37,159.983 27.84,14.519 43.886,44.792 40.162,75.969 -8.761,73.332 -45.491,192.473 -191.683,192.473 -211.186,0 -259.686,-65.15 -259.686,-65.15 -28.09,62.196 18.261,134.22 87.923,134.22 h 344.44 c 51.024,0 93.078,-39.96 95.711,-90.877 l 15.898,-306.199 c 0,0 17.617,4.297 69.232,4.297 h 0.644 0.645 c 51.615,0 69.232,-4.297 69.232,-4.297 l 15.898,306.199 c 2.632,50.917 44.687,90.877 95.711,90.877 h 344.44 c 69.659,0 116.01,-72.024 87.92,-134.22 z"
   id="path10" />
				</g>
				<g
   style="opacity:0.3"
   id="g12">
					<path
   style="fill:#000072"
   d="m 1786.599,3320.907 c 0,0 -23.839,-165.865 -334.753,-122.064 l 29.759,66.244 c 0,0 179.543,-63.876 304.994,55.82 z"
   id="path11" />
				</g>
				<g
   style="opacity:0.3"
   id="g13">
					<path
   style="fill:#000072"
   d="m 2188.654,3320.907 c 0,0 23.839,-165.865 334.753,-122.064 l -29.759,66.244 c 0,0 -179.544,-63.876 -304.994,55.82 z"
   id="path12" />
				</g>
				<g
   style="opacity:0.3"
   id="g14">
					<path
   style="fill:#000072"
   d="m 2605.878,2782.567 c 0,0 -0.107,19.873 -2.632,53.28 -0.054,0.161 -0.107,0.269 -0.161,0.429 0,0 -220.317,140.129 -616.855,140.129 -370.704,0 -587.369,-122.458 -614.063,-138.464 -2.632,-34.642 -2.793,-55.375 -2.793,-55.375 0,0 251.361,140.129 616.855,140.129 h 2.793 c 365.495,10e-4 616.856,-140.128 616.856,-140.128 z"
   id="path13" />
				</g>
				<g
   id="g15">
					<path
   style="fill:#000072"
   d="m 1474.709,3244.741 c 4.089,-1.443 7.258,-2.439 10.842,-3.54 3.477,-1.084 6.97,-1.985 10.452,-2.915 6.958,-1.865 13.965,-3.35 20.984,-4.775 14.045,-2.793 28.25,-4.675 42.529,-5.903 28.55,-2.366 57.583,-1.499 86.16,3.335 28.489,4.995 56.812,13.833 81.912,28.696 25.171,14.558 46.895,34.768 62.144,58.45 1.274,1.982 0.703,4.622 -1.277,5.898 -1.528,0.984 -3.45,0.867 -4.834,-0.146 l -0.154,-0.115 c -10.962,-8.076 -21.558,-15.942 -33.037,-22.283 -11.438,-6.328 -22.944,-12.117 -35.051,-16.423 -23.999,-8.933 -49.063,-14.197 -74.558,-16.294 -25.518,-1.902 -51.34,-1.145 -77.009,2.009 -12.839,1.487 -25.627,3.584 -38.33,6.025 -6.338,1.27 -12.661,2.627 -18.926,4.072 l -9.316,2.278 c -2.979,0.732 -6.357,1.633 -8.738,2.324 l -0.654,0.19 c -11.392,3.308 -23.311,-3.245 -26.619,-14.636 -3.189,-10.981 2.841,-22.47 13.48,-26.247 z"
   id="path14" />
				</g>
				<g
   id="g16">
					<path
   style="fill:#000072"
   d="m 2486.75,3285.435 c -2.38,-0.691 -5.757,-1.592 -8.738,-2.324 l -9.316,-2.278 c -6.262,-1.445 -12.585,-2.803 -18.923,-4.072 -12.705,-2.441 -25.493,-4.539 -38.333,-6.025 -25.669,-3.154 -51.489,-3.911 -77.009,-2.009 -25.496,2.097 -50.557,7.361 -74.556,16.294 -12.109,4.307 -23.613,10.095 -35.051,16.423 -11.479,6.34 -22.078,14.207 -33.037,22.283 l -0.149,0.107 c -1.897,1.399 -4.568,0.994 -5.964,-0.903 -1.079,-1.465 -1.077,-3.396 -0.151,-4.841 15.249,-23.682 36.97,-43.892 62.141,-58.45 25.103,-14.863 53.425,-23.701 81.912,-28.696 28.579,-4.834 57.61,-5.701 86.162,-3.335 14.28,1.228 28.484,3.11 42.527,5.903 7.019,1.426 14.028,2.91 20.986,4.775 3.481,0.93 6.973,1.831 10.452,2.915 3.582,1.101 6.753,2.097 10.842,3.54 11.187,3.948 17.056,16.216 13.108,27.402 -3.804,10.784 -15.339,16.626 -26.187,13.499 z"
   id="path15" />
				</g>
				<g
   id="g17">
					<path
   style="fill:#000072"
   d="m 1916.836,3115.603 c -10.251,-0.933 -19.541,-2.329 -29.177,-3.879 -9.561,-1.455 -19.021,-3.403 -28.457,-5.425 -9.429,-2.063 -18.835,-4.167 -28.174,-6.655 -9.338,-2.419 -18.594,-5.278 -27.834,-8.052 -18.389,-6.025 -36.582,-12.803 -54.167,-21.04 -17.49,-8.508 -34.321,-18.682 -49.355,-31.052 -2.451,-2.017 -2.803,-5.64 -0.786,-8.093 1.594,-1.936 4.189,-2.563 6.418,-1.746 l 0.188,0.071 c 17.524,6.458 34.927,11.978 52.512,16.978 17.712,4.692 35.457,9.019 53.467,12.38 9.031,1.609 18.013,3.301 27.102,4.568 9.023,1.523 18.123,2.727 27.207,3.862 9.089,1.13 18.21,2.014 27.285,2.981 8.989,0.945 18.384,1.633 26.86,2.246 l 0.41,0.032 c 11.836,0.857 20.735,11.145 19.878,22.981 -0.857,11.833 -11.145,20.735 -22.981,19.878 -0.096,-0.01 -0.301,-0.025 -0.396,-0.035 z"
   id="path16" />
				</g>
				<g
   id="g18">
					<path
   style="fill:#000072"
   d="m 2055.33,3072.747 c 8.477,-0.613 17.871,-1.301 26.86,-2.246 9.075,-0.967 18.196,-1.851 27.285,-2.981 9.082,-1.135 18.184,-2.339 27.205,-3.862 9.089,-1.267 18.074,-2.959 27.104,-4.568 18.01,-3.362 35.754,-7.688 53.464,-12.38 17.585,-5 34.99,-10.52 52.512,-16.978 l 0.181,-0.066 c 2.979,-1.099 6.284,0.427 7.38,3.406 0.869,2.354 0.09,4.917 -1.741,6.428 -15.034,12.371 -31.863,22.544 -49.355,31.052 -17.583,8.237 -35.776,15.015 -54.165,21.04 -9.241,2.773 -18.496,5.632 -27.837,8.052 -9.336,2.488 -18.745,4.592 -28.174,6.655 -9.436,2.021 -18.896,3.97 -28.457,5.425 -9.634,1.55 -18.923,2.947 -29.175,3.879 -11.819,1.077 -22.271,-7.632 -23.345,-19.448 -1.077,-11.819 7.632,-22.271 19.448,-23.345 0.095,-0.01 0.19,-0.017 0.286,-0.024 z"
   id="path17" />
				</g>
				<g
   id="g19">
					<path
   style="fill:#000072"
   d="m 2512.901,3512.727 h -344.453 c -62.466,0 -113.926,-48.867 -117.163,-111.25 l -14.668,-283.14 c -11.538,0.903 -27.515,1.641 -48.989,1.641 -21.47,0 -37.451,-0.737 -48.989,-1.641 l -14.668,283.14 c -3.237,62.383 -54.702,111.25 -117.168,111.25 h -344.448 c -41.753,0 -79.521,-21.44 -101.025,-57.349 -21.221,-35.435 -22.314,-78.208 -2.925,-114.414 24.121,-45.039 67.935,-72.856 94.233,-86.309 -101.86,-216.538 -104.658,-461.323 -104.727,-471.948 -0.049,-7.642 3.965,-14.736 10.542,-18.628 6.577,-3.896 14.736,-3.999 21.401,-0.278 2.461,1.367 251.289,137.402 606.377,137.402 v 42.969 c -294.16,0 -513.184,-88.096 -593.818,-126.011 4.873,78.472 25.088,271.968 108.379,437.256 2.759,5.469 3.047,11.855 0.801,17.554 -2.246,5.693 -6.821,10.161 -12.568,12.275 -0.61,0.229 -65.327,24.81 -92.739,76.001 -12.192,22.764 -11.479,49.702 1.909,72.056 13.667,22.827 37.656,36.455 64.16,36.455 h 344.448 c 39.59,0 72.207,-30.972 74.258,-70.508 l 15.864,-306.187 c 0.332,-6.392 3.496,-12.305 8.633,-16.123 5.137,-3.818 11.724,-5.142 17.925,-3.633 v 0 c 0.02,0 17.246,3.701 64.145,3.701 46.987,0 64.195,-3.716 64.365,-3.755 6.177,-1.367 12.744,0.015 17.778,3.843 5.034,3.823 8.232,9.653 8.56,15.967 l 15.864,306.187 c 2.051,39.536 34.668,70.508 74.253,70.508 h 344.453 c 26.504,0 50.489,-13.628 64.16,-36.455 13.384,-22.354 14.102,-49.292 1.909,-72.056 -27.412,-51.191 -92.129,-75.771 -92.778,-76.016 -5.727,-2.134 -10.293,-6.606 -12.524,-12.295 -2.231,-5.689 -1.953,-12.065 0.796,-17.52 83.291,-165.283 103.506,-358.784 108.374,-437.256 -80.635,37.915 -299.653,126.011 -593.813,126.011 v -42.969 c 355.088,0 603.911,-136.035 606.382,-137.407 6.68,-3.711 14.829,-3.604 21.396,0.293 6.572,3.892 10.586,10.977 10.537,18.618 -0.069,10.625 -2.862,255.41 -104.722,471.948 26.299,13.452 70.112,41.27 94.233,86.309 19.389,36.211 18.291,78.979 -2.93,114.419 -21.504,35.91 -59.267,57.345 -101.02,57.345 z"
   id="path18" />
				</g>
			</g>
			<g
   id="g30">
				<g
   id="g21">
					<path
   style="fill:#6f6f87"
   d="m 2606.039,2723.594 c 0,0 -210.005,119.558 -617.769,119.665 h -0.644 c -408.193,0 -618.413,-119.665 -618.413,-119.665 -9.238,-379.834 111.555,-562.985 111.555,-562.985 0,0 100.974,-93.079 506.858,-93.079 405.884,0 506.858,93.079 506.858,93.079 0,0 29.97,45.438 58.92,137.98 29.164,93.241 57.254,234.336 52.635,425.005 z"
   id="path20" />
				</g>
				<g
   style="opacity:0.3"
   id="g22">
					<path
   style="fill:#000072"
   d="m 2553.404,2298.59 c 0,0 -140.129,316.779 -565.133,316.779 -425.004,0 -565.133,-316.779 -565.133,-316.779 -29.164,93.24 -57.254,234.335 -52.635,425.004 0,0 210.005,119.558 617.768,119.665 407.763,-0.108 617.769,-119.665 617.769,-119.665 4.618,-190.669 -23.472,-331.764 -52.636,-425.004 z"
   id="path21" />
				</g>
				<g
   id="g23">
					<polygon
   style="fill:#000072"
   points="1986.229,2370.901 2122.479,2227.387 1838.858,2226.307 "
   id="polygon22" />
				</g>
				<g
   id="g24">
					<path
   style="fill:#000072"
   d="m 2479.939,2176.409 -1.665,-1.248 c -0.781,-0.596 -1.548,-1.204 -2.573,-1.848 -1.963,-1.252 -3.706,-2.583 -5.833,-3.804 -4.197,-2.449 -8.296,-4.983 -12.874,-7.192 -4.426,-2.324 -8.892,-4.617 -13.64,-6.619 -4.722,-2.009 -9.199,-4.355 -14.116,-6.106 l -14.492,-5.613 c -4.819,-1.89 -9.89,-3.354 -14.822,-5.056 -4.985,-1.606 -9.885,-3.386 -14.934,-4.856 l -15.22,-4.268 c -5.09,-1.375 -10.1,-2.957 -15.259,-4.17 l -15.479,-3.611 -15.476,-3.621 c -5.183,-1.128 -10.444,-2.021 -15.662,-3.047 -10.479,-1.899 -20.862,-4.172 -31.418,-5.776 l -31.687,-4.749 c -10.525,-1.77 -21.23,-2.664 -31.858,-3.938 l -31.943,-3.523 c -21.418,-1.541 -42.781,-3.572 -64.248,-4.722 -21.499,-0.864 -42.961,-2.153 -64.487,-2.676 l -64.626,-0.93 -64.626,0.93 c -21.526,0.522 -42.988,1.812 -64.487,2.676 -21.467,1.15 -42.83,3.181 -64.25,4.722 l -31.941,3.523 c -10.627,1.274 -21.335,2.168 -31.858,3.938 l -31.689,4.749 c -10.557,1.604 -20.938,3.877 -31.416,5.776 -5.217,1.025 -10.479,1.919 -15.662,3.047 l -15.479,3.621 -15.479,3.611 c -5.156,1.213 -10.166,2.795 -15.256,4.17 l -15.22,4.268 c -5.049,1.47 -9.951,3.25 -14.934,4.856 -4.932,1.702 -10.002,3.167 -14.822,5.056 l -14.492,5.613 c -4.917,1.75 -9.395,4.097 -14.119,6.106 -4.746,2.002 -9.211,4.294 -13.64,6.619 -4.575,2.209 -8.674,4.744 -12.874,7.192 -2.124,1.221 -3.867,2.551 -5.833,3.804 -1.025,0.645 -1.792,1.252 -2.571,1.848 l -1.667,1.248 3.379,-3.972 c -2.437,3.865 -5.479,9.211 -8.11,14.124 -2.791,4.922 -5.251,10.259 -7.9,15.366 -4.993,10.486 -9.99,21.028 -14.38,31.919 -9.211,21.55 -16.985,43.86 -24.299,66.301 -14.355,45.029 -25.034,91.36 -33.447,138.103 l -5.73,35.193 c -1.836,11.743 -2.964,23.611 -4.482,35.408 -3.296,23.572 -4.641,47.393 -6.624,71.13 -1.167,11.858 -1.311,23.799 -1.824,35.71 l -1.345,35.752 c -0.2,23.862 0.107,47.744 0.127,71.616 l -10.847,-18.149 c 4.717,2.578 10.718,5.564 16.343,8.223 5.625,2.808 11.621,5.266 17.41,7.922 11.812,5.017 23.665,10.046 35.82,14.482 24.109,9.294 48.853,17.256 73.726,24.744 49.851,14.778 100.813,26.157 152.163,35.422 102.905,17.703 207.576,26.038 312.332,26.089 104.756,-0.049 209.426,-8.386 312.334,-26.089 51.348,-9.265 102.312,-20.642 152.161,-35.42 24.875,-7.488 49.619,-15.449 73.726,-24.744 12.158,-4.434 24.009,-9.465 35.82,-14.48 5.791,-2.656 11.785,-5.117 17.412,-7.925 5.625,-2.656 11.626,-5.645 16.343,-8.223 h 0.01 l -10.847,18.149 c -1.123,-35.061 -1.738,-69.995 -3.174,-104.897 -0.696,-17.451 -1.667,-34.873 -2.588,-52.307 -1.218,-17.402 -2.339,-34.822 -3.792,-52.217 -3.176,-34.756 -6.663,-69.517 -11.323,-104.231 -4.28,-34.807 -9.971,-69.421 -15.21,-104.648 l -0.01,-0.059 c -0.535,-3.591 1.943,-6.936 5.537,-7.471 2.937,-0.437 5.71,1.15 6.917,3.704 15.369,32.654 27.041,66.909 36.65,101.672 9.231,34.854 16.553,70.266 21.462,105.986 1.184,8.931 2.563,17.854 3.584,26.807 l 2.771,26.895 2.202,26.941 1.367,26.982 c 1.372,35.986 1.169,72.017 -1.44,107.883 l -0.1,1.392 c -0.53,7.263 -4.836,13.45 -10.747,16.758 l -0.01,0.01 c -6.887,3.779 -12.759,6.643 -19.089,9.656 -6.221,3.091 -12.476,5.667 -18.713,8.521 -12.537,5.334 -25.063,10.632 -37.766,15.276 -25.286,9.739 -50.962,18.003 -76.758,25.769 -51.653,15.31 -104.141,27.024 -156.938,36.545 -105.745,18.198 -212.849,26.687 -319.788,26.738 -106.938,-0.051 -214.043,-8.54 -319.788,-26.741 -52.798,-9.521 -105.286,-21.235 -156.938,-36.545 -25.796,-7.766 -51.472,-16.03 -76.758,-25.769 -12.703,-4.644 -25.229,-9.944 -37.766,-15.276 -6.238,-2.854 -12.493,-5.43 -18.713,-8.521 -6.331,-3.015 -12.2,-5.876 -19.089,-9.658 l -0.129,-0.071 c -6.824,-3.743 -10.693,-10.808 -10.72,-18.079 -0.032,-24.497 -0.344,-48.992 -0.129,-73.489 l 1.377,-36.755 c 0.525,-12.249 0.686,-24.509 1.877,-36.736 2.031,-24.46 3.44,-48.967 6.829,-73.328 1.565,-12.185 2.739,-24.417 4.636,-36.565 l 5.925,-36.421 c 8.716,-48.433 19.8,-96.56 34.834,-143.726 7.666,-23.538 15.833,-46.951 25.625,-69.893 4.663,-11.541 10.012,-22.876 15.425,-34.214 2.91,-5.632 5.53,-11.284 8.689,-16.892 3.108,-5.732 5.984,-10.938 10.01,-17.295 l 0.085,-0.137 c 0.916,-1.445 2.073,-2.761 3.293,-3.838 0.854,-0.747 2.046,-1.787 2.666,-2.244 l 2.056,-1.567 c 1.377,-1.055 2.766,-2.104 4.036,-2.917 2.595,-1.699 5.232,-3.608 7.813,-5.107 5.171,-3.054 10.352,-6.189 15.562,-8.726 5.2,-2.727 10.413,-5.378 15.679,-7.617 5.266,-2.261 10.474,-4.919 15.798,-6.833 l 15.911,-6.162 c 5.303,-2.068 10.684,-3.638 16.025,-5.476 5.356,-1.731 10.686,-3.647 16.067,-5.217 l 16.172,-4.543 c 5.396,-1.46 10.767,-3.137 16.187,-4.417 l 16.27,-3.806 16.27,-3.796 c 5.432,-1.182 10.891,-2.117 16.338,-3.186 10.901,-1.985 21.775,-4.343 32.705,-6.011 l 32.795,-4.917 c 10.923,-1.824 21.895,-2.751 32.844,-4.065 10.957,-1.199 21.907,-2.537 32.866,-3.616 21.934,-1.589 43.865,-3.665 65.801,-4.841 21.934,-0.889 43.877,-2.2 65.803,-2.729 l 65.769,-0.947 65.767,0.947 c 21.929,0.532 43.872,1.841 65.806,2.729 21.934,1.177 43.867,3.252 65.798,4.841 10.959,1.079 21.912,2.417 32.869,3.616 10.95,1.313 21.921,2.241 32.844,4.065 l 32.795,4.917 c 10.928,1.667 21.802,4.026 32.705,6.011 5.444,1.069 10.903,2.004 16.335,3.186 l 16.272,3.796 16.267,3.806 c 5.422,1.279 10.791,2.957 16.189,4.417 l 16.169,4.543 c 5.383,1.57 10.713,3.486 16.069,5.217 5.339,1.838 10.723,3.411 16.025,5.476 l 15.911,6.162 c 5.325,1.914 10.53,4.573 15.798,6.833 5.266,2.239 10.479,4.89 15.676,7.617 5.21,2.537 10.391,5.671 15.562,8.726 2.583,1.501 5.22,3.408 7.815,5.107 1.27,0.813 2.659,1.863 4.036,2.917 l 2.056,1.567 c 0.62,0.457 1.809,1.497 2.666,2.244 8.906,7.771 9.827,21.292 2.056,30.198 -7.402,8.484 -20.02,9.722 -28.899,3.105 z"
   id="path23" />
				</g>
				<g
   id="g29">
					<g
   id="g25">
						<path
   style="fill:#000072"
   d="M 2365.465,2821.155 C 1954.679,2589.885 1583.36,2127.879 1579.659,2123.24 l 33.584,-26.807 c 3.652,4.575 369.907,460.171 773.306,687.28 z"
   id="path24" />
					</g>
					<g
   id="g26">
						<path
   style="fill:#000072"
   d="m 2494.488,2784.734 c -410.449,-231.079 -797.861,-680.142 -801.724,-684.648 l 32.617,-27.969 c 3.818,4.453 386.441,447.866 790.191,675.176 z"
   id="path25" />
					</g>
					<g
   id="g27">
						<path
   style="fill:#000072"
   d="m 2002.989,2387.224 -30.723,-30.039 c 1.738,-1.777 174.863,-178.97 268.891,-286.548 l 32.354,28.276 c -94.819,108.487 -268.774,286.524 -270.522,288.311 z"
   id="path26" />
					</g>
					<g
   id="g28">
						<path
   style="fill:#000072"
   d="m 2086.431,2461.824 -31.436,-29.297 c 2.124,-2.28 213.428,-229.048 307.632,-336.826 l 32.354,28.271 c -94.653,108.301 -306.426,335.567 -308.55,337.852 z"
   id="path27" />
					</g>
				</g>
			</g>
			<g
   id="g34">
				<g
   id="g31">
					<path
   style="fill:#f72163"
   d="m 1986.229,2778.798 c 333.246,0 616.832,-143.89 616.832,-143.89 0,0 36.247,62.2 0,147.656 0,0 -220.285,140.125 -616.832,140.125 -396.547,0 -616.832,-140.125 -616.832,-140.125 -36.247,-85.456 0,-147.656 0,-147.656 0,0 283.585,143.89 616.832,143.89 z"
   id="path30" />
				</g>
				<g
   style="opacity:0.3"
   id="g32">
					<path
   style="fill:#000072"
   d="m 2603.061,2712.741 c 0,0 -220.285,140.124 -616.832,140.124 -396.547,0 -616.832,-140.124 -616.832,-140.124 -6.118,-14.424 -10.133,-28.164 -12.643,-41.075 -5.4,26.437 -6.671,65.363 12.643,110.897 0,0 220.285,140.124 616.832,140.124 396.547,0 616.832,-140.124 616.832,-140.124 19.314,-45.535 18.043,-84.46 12.643,-110.897 -2.51,12.912 -6.525,26.652 -12.643,41.075 z"
   id="path31" />
				</g>
				<g
   id="g33">
					<path
   style="fill:#000072"
   d="m 1986.231,2944.172 c -398.223,0 -619.155,-137.622 -628.364,-143.481 -3.677,-2.334 -6.553,-5.728 -8.252,-9.736 -39.985,-94.282 -0.483,-163.94 1.216,-166.86 5.732,-9.824 18.12,-13.496 28.281,-8.345 2.793,1.416 283.198,141.563 607.119,141.563 324.35,0 604.321,-140.146 607.109,-141.563 10.151,-5.151 22.549,-1.489 28.286,8.345 1.699,2.92 41.201,72.578 1.216,166.86 -1.699,4.009 -4.575,7.402 -8.252,9.736 -9.208,5.859 -230.141,143.481 -628.359,143.481 z m -599.639,-176.381 c 36.636,21.016 249.106,133.413 599.639,133.413 350.484,0 562.939,-112.368 599.634,-133.413 17.583,-45.771 12.183,-82.803 5.933,-103.687 -72.256,33.262 -318.994,136.177 -605.567,136.177 -286.597,0 -533.345,-102.925 -605.581,-136.177 -6.235,20.835 -11.65,57.886 5.942,103.687 z"
   id="path32" />
				</g>
			</g>
			<g
   id="g38">
				<g
   id="g35">
					<path
   style="fill:#f72163"
   d="m 1893.635,2861.69 c 0,0 -37.98,191.053 -86.319,367.144 0,0 65.602,14.962 128.903,-18.415 0,0 52.727,-248.594 52.068,-336.069 z"
   id="path34" />
				</g>
				<g
   style="opacity:0.3"
   id="g36">
					<path
   style="fill:#000072"
   d="m 1893.635,2861.69 c 0,0 -0.5,2.508 -1.41,6.995 l 42.352,5.665 c 0.66,87.475 -52.067,336.069 -52.067,336.069 -22.44,11.832 -45.155,17.572 -65.148,20.075 20.732,2.704 70.45,5.449 118.858,-20.075 0,0 52.727,-248.594 52.067,-336.069 z"
   id="path35" />
				</g>
				<g
   id="g37">
					<path
   style="fill:#000072"
   d="m 1844.112,3253.669 c -23.965,0 -40.176,-3.569 -41.572,-3.887 -5.718,-1.304 -10.649,-4.883 -13.657,-9.912 -3.013,-5.029 -3.838,-11.069 -2.285,-16.724 47.588,-173.345 85.586,-363.74 85.967,-365.645 2.207,-11.123 12.725,-18.589 23.916,-17.104 l 94.653,12.656 c 10.61,1.416 18.555,10.43 18.638,21.133 0.669,88.789 -50.366,330.444 -52.539,340.688 -1.323,6.24 -5.352,11.572 -10.996,14.546 -37.115,19.572 -74.693,24.249 -102.125,24.249 z m -9.551,-43.252 c 20.244,0.947 51.523,-0.693 82.769,-14.688 9.082,-43.955 44.209,-218.076 48.95,-302.651 l -55.605,-7.432 c -10.435,50.523 -40.049,189.879 -76.114,324.771 z"
   id="path36" />
				</g>
			</g>
			<g
   id="g42">
				<g
   id="g39">
					<path
   style="fill:#f72163"
   d="m 2082.938,2861.69 c 0,0 37.98,191.053 86.319,367.144 0,0 -65.603,14.962 -128.903,-18.415 0,0 -52.727,-248.594 -52.068,-336.069 z"
   id="path38" />
				</g>
				<g
   style="opacity:0.3"
   id="g40">
					<path
   style="fill:#000072"
   d="m 2082.938,2861.69 c 0,0 0.5,2.508 1.41,6.995 l -42.352,5.665 c -0.66,87.475 52.067,336.069 52.067,336.069 22.44,11.832 45.155,17.572 65.148,20.075 -20.732,2.704 -70.45,5.449 -118.858,-20.075 0,0 -52.727,-248.594 -52.067,-336.069 z"
   id="path39" />
				</g>
				<g
   id="g41">
					<path
   style="fill:#000072"
   d="m 2132.457,3253.669 c -27.427,0 -65.01,-4.678 -102.124,-24.248 -5.645,-2.974 -9.673,-8.306 -10.996,-14.546 -2.173,-10.244 -53.203,-251.899 -52.534,-340.688 0.083,-10.703 8.027,-19.717 18.638,-21.133 l 94.648,-12.656 c 11.235,-1.475 21.704,5.986 23.916,17.104 0.381,1.904 38.398,192.354 85.972,365.645 1.552,5.654 0.727,11.694 -2.285,16.724 -3.008,5.029 -7.944,8.608 -13.657,9.912 -1.398,0.317 -17.614,3.886 -41.578,3.886 z m -73.218,-57.939 c 31.23,13.989 62.519,15.679 82.773,14.683 -36.069,-134.888 -65.679,-274.243 -76.118,-324.766 l -55.6,7.432 c 4.741,84.575 39.868,258.696 48.945,302.651 z"
   id="path40" />
				</g>
			</g>
			<g
   id="g48">
				<g
   id="g43">
					<path
   style="fill:#f72163"
   d="m 2089.444,2732.971 c 41.521,11.885 70.723,49.839 70.67,93.027 -0.067,54.26 -28.434,123.354 -172.487,123.354 -95.275,0 -139.945,-30.224 -159.292,-66.391 -42.9,-80.197 37.979,-172.397 121.959,-137.478 5.181,2.154 10.379,4.775 15.562,7.924 -10e-4,0 50.216,-41.438 123.588,-20.436 z"
   id="path42" />
				</g>
				<g
   style="opacity:0.3"
   id="g44">
					<path
   style="fill:#000072"
   d="m 1987.626,2868.787 c -95.275,0 -139.945,-30.224 -159.292,-66.39 -1.083,-2.025 -2.032,-4.062 -2.96,-6.1 -11.81,25.869 -12.869,57.075 2.96,86.664 19.347,36.167 64.017,66.39 159.292,66.39 144.054,0 172.421,-69.094 172.487,-123.354 0.016,-12.888 -2.624,-25.288 -7.369,-36.691 -15.317,41.654 -58.537,79.481 -165.118,79.481 z"
   id="path43" />
				</g>
				<g
   style="opacity:0.5"
   id="g45">
					<path
   style="fill:#ffffff"
   d="m 1950.293,2783.08 c 5.181,2.154 10.379,4.775 15.562,7.924 0,0 50.217,-41.438 123.589,-20.437 36.025,10.312 62.745,40.259 69.16,76.212 1.053,-7.049 1.502,-14.03 1.51,-20.782 0.053,-43.188 -29.149,-81.142 -70.67,-93.027 -73.372,-21.002 -123.589,20.437 -123.589,20.437 -5.183,-3.149 -10.381,-5.77 -15.562,-7.924 -74.444,-30.954 -146.376,37.984 -131.886,109.901 11.23,-55.701 70.707,-97.743 131.886,-72.304 z"
   id="path44" />
				</g>
				<g
   id="g46">
					<path
   style="fill:#000072"
   d="m 2056.744,2950.261 -42.266,-7.764 c 21.206,-115.449 -59.688,-170.649 -60.503,-171.191 l 23.76,-35.801 c 4.312,2.862 105.273,71.734 79.009,214.756 z"
   id="path45" />
				</g>
				<g
   id="g47">
					<path
   style="fill:#000072"
   d="m 1987.627,2970.837 c -90.674,0 -150.644,-26.157 -178.237,-77.744 -24.199,-45.234 -17.388,-99.209 17.354,-137.5 33.911,-37.383 85.64,-49.131 131.797,-29.951 2.041,0.85 4.067,1.758 6.079,2.715 21.46,-12.813 69.014,-33.706 130.737,-16.04 v 0 c 50.84,14.556 86.304,61.313 86.24,113.706 -0.068,54.087 -25.361,144.814 -193.97,144.814 z m -74.306,-211.469 c -23.052,0 -42.451,11.533 -54.756,25.098 -17.807,19.624 -30.122,53.145 -11.284,88.364 19.536,36.523 66.753,55.039 140.347,55.039 100.112,0 150.918,-34.282 151.001,-101.899 0.044,-33.296 -22.617,-63.047 -55.097,-72.344 v 0 c -60.933,-17.437 -102.383,15.049 -104.116,16.44 -7.041,5.654 -16.982,6.387 -24.712,1.704 -4.092,-2.49 -8.359,-4.658 -12.671,-6.455 -9.996,-4.155 -19.64,-5.947 -28.712,-5.947 z"
   id="path46" />
				</g>
			</g>
			<g
   id="g78">
				<g
   id="g52">
					<g
   id="g49">
						<path
   style="fill:#f72163"
   d="m 2755.259,1050.536 c 0,0 15.225,-154.44 196.072,-219.07 C 3126.846,768.74 3126.271,500 3126.271,500 c 0,0 108.187,29.924 135.809,92.074 27.622,62.15 -39.513,233.859 -253.41,356.785 -213.897,122.926 -193.195,257.272 -193.195,257.272 0,0 -51.424,-45.863 -60.216,-155.595 z"
   id="path48" />
					</g>
					<g
   style="opacity:0.3"
   id="g50">
						<path
   style="fill:#000072"
   d="m 3262.079,592.074 c -13.427,-30.212 -45.884,-52.786 -75.705,-68.032 6.847,7.684 12.606,16.023 16.624,25.064 27.622,62.15 -39.513,233.859 -253.41,356.785 -125.476,72.111 -170.206,148.138 -185.758,198.683 17.367,70.959 51.644,101.558 51.644,101.558 0,0 -20.702,-134.346 193.195,-257.273 213.897,-122.926 281.033,-294.636 253.41,-356.785 z"
   id="path49" />
					</g>
					<g
   id="g51">
						<path
   style="fill:#000072"
   d="m 2815.479,1227.615 c -5.161,0 -10.273,-1.855 -14.306,-5.449 -2.358,-2.109 -57.954,-52.944 -67.329,-169.917 -0.103,-1.27 -0.088,-2.549 0.034,-3.823 0.679,-6.855 18.765,-168.765 210.22,-237.188 159.389,-56.968 160.693,-308.657 160.688,-311.196 -0.015,-6.714 3.115,-13.052 8.457,-17.129 5.337,-4.072 12.285,-5.42 18.755,-3.623 4.819,1.333 118.33,33.447 149.717,104.058 33.764,75.977 -40.225,256.489 -262.344,384.141 -198.823,114.263 -182.847,234.175 -182.661,235.371 1.377,8.96 -3.013,17.822 -10.982,22.149 -3.218,1.751 -6.743,2.606 -10.249,2.606 z m -38.628,-176.665 c 3.564,41.313 13.638,72.632 24.057,94.995 15.615,-55.234 62.319,-138.281 197.056,-215.713 201.465,-115.781 267.188,-278.354 244.482,-329.434 -14.736,-33.159 -62.193,-58.008 -95.957,-71.25 -5.474,74.746 -34.507,267.314 -187.929,322.148 -156.904,56.075 -179.35,182.032 -181.709,199.254 z"
   id="path50" />
					</g>
				</g>
				<g
   id="g56">
					<g
   id="g53">
						<path
   style="fill:#f72163"
   d="m 2715.532,1067.798 c 0,0 133.9,-78.448 292.477,29.885 153.902,105.14 370.993,-53.268 370.993,-53.268 0,0 39.372,105.117 5.323,163.991 -34.05,58.875 -212.431,105.474 -437.597,4.662 -225.166,-100.812 -321.694,-5.105 -321.694,-5.105 0,0 6.884,-68.56 90.498,-140.165 z"
   id="path52" />
					</g>
					<g
   style="opacity:0.3"
   id="g54">
						<path
   style="fill:#000072"
   d="m 3384.325,1138.583 c -34.05,58.874 -212.431,105.474 -437.597,4.662 -135.474,-60.655 -224.321,-50.16 -273.655,-32.182 -43.654,53.658 -48.039,96.9 -48.039,96.9 0,0 96.528,-95.707 321.694,5.105 225.166,100.812 403.547,54.213 437.597,-4.662 16.25,-28.098 15.766,-66.714 10.83,-99.424 -2.178,10.581 -5.643,20.632 -10.83,29.601 z"
   id="path53" />
					</g>
					<g
   id="g55">
						<path
   style="fill:#000072"
   d="m 3201.441,1293.992 c -74.907,0 -165.278,-17.344 -263.491,-61.313 -209.287,-93.701 -296.929,-10.313 -297.788,-9.463 -6.435,6.387 -16.191,8.037 -24.37,4.141 -8.184,-3.901 -13.037,-12.519 -12.134,-21.543 0.317,-3.149 8.77,-78.003 97.9,-154.331 0.972,-0.83 2.012,-1.572 3.115,-2.217 5.947,-3.491 147.583,-84.004 315.454,30.679 139.424,95.249 344.17,-51.396 346.221,-52.891 5.425,-3.945 12.388,-5.147 18.823,-3.208 6.431,1.929 11.592,6.748 13.945,13.037 1.753,4.678 42.49,115.391 3.809,182.28 -24.14,41.738 -98.061,74.819 -201.484,74.829 z M 2758.16,1145.339 c 51.313,0 116.689,12.007 197.348,48.12 212.085,94.956 382.246,52.578 410.22,4.19 18.169,-31.411 10.376,-84.409 1.25,-119.507 -63.696,39.502 -236.558,129.185 -371.089,37.28 -137.041,-93.623 -253.701,-37.446 -268.028,-29.888 -31.323,27.158 -50.732,53.706 -62.695,75.273 23.238,-8.553 54.063,-15.468 92.994,-15.468 z"
   id="path54" />
					</g>
				</g>
				<g
   id="g61">
					<g
   id="g57">
						<path
   style="fill:#6f6f87"
   d="m 1987.626,642.714 c 923.548,0 882.87,848.817 865.299,1019.832 -1.953,19.014 0.431,38.222 6.953,56.189 98.953,272.607 -188.541,403.855 -459.522,466.535 -271.397,62.776 -554.063,62.776 -825.46,0 -270.981,-62.68 -558.476,-193.928 -459.522,-466.535 6.522,-17.967 8.907,-37.175 6.953,-56.189 -17.57,-171.014 -58.249,-1019.832 865.299,-1019.832 z"
   id="path56" />
					</g>
					<g
   style="opacity:0.3"
   id="g58">
						<path
   style="fill:#000072"
   d="m 2859.879,1718.735 c -6.522,-17.967 -8.906,-37.175 -6.953,-56.189 13.384,-130.267 40.143,-653.799 -356.044,-895.895 302.179,242.156 279.935,695.38 268.517,812.64 -1.756,18.034 0.388,36.252 6.25,53.293 88.944,258.557 -169.47,383.04 -413.041,442.489 -243.945,59.541 -498.019,59.541 -741.964,0 -243.571,-59.45 -501.985,-183.933 -413.041,-442.49 5.862,-17.041 8.006,-35.259 6.25,-53.293 -11.417,-117.26 -33.661,-570.482 268.516,-812.639 -396.185,242.096 -369.427,765.627 -356.043,895.894 1.954,19.014 -0.431,38.222 -6.953,56.189 -98.953,272.607 188.541,403.855 459.522,466.535 271.397,62.776 554.064,62.776 825.461,0 270.982,-62.679 558.476,-193.926 459.523,-466.534 z"
   id="path57" />
					</g>
					<g
   style="opacity:0.5"
   id="g59">
						<path
   style="fill:#ffffff"
   d="m 1987.626,642.714 c -804,0 -877.24,643.269 -871.138,922.639 5.256,-240.98 78.566,-648.295 491.368,-802.186 14.777,20.24 72.389,25.283 137.241,10.656 63.075,-14.226 111.968,-42.315 118.887,-66.499 39.191,-3.58 80.307,-5.53 123.641,-5.53 751.505,0 864.561,562.02 871.138,863.555 6.102,-279.371 -67.14,-922.635 -871.137,-922.635 z"
   id="path58" />
					</g>
					<g
   id="g60">
						<path
   style="fill:#000072"
   d="m 1987.627,2253.596 c -140.493,0 -280.981,-15.801 -417.573,-47.393 -245.669,-56.826 -402.134,-144.365 -465.059,-260.19 -37.778,-69.546 -41.084,-148.476 -9.819,-234.609 5.396,-14.854 7.393,-30.986 5.776,-46.655 -11.982,-116.67 -32.134,-518.32 211.753,-788.545 152.7,-169.189 379.775,-254.976 674.922,-254.976 295.142,0 522.217,85.786 674.917,254.976 243.887,270.225 223.735,671.875 211.753,788.54 -1.612,15.679 0.385,31.816 5.776,46.665 31.265,86.128 27.964,165.063 -9.819,234.604 -62.915,115.825 -219.385,203.364 -465.054,260.19 -136.591,31.592 -277.079,47.393 -417.573,47.393 z m 0,-1589.399 c -282.471,0 -498.813,81.016 -643.022,240.796 -232.012,257.07 -212.437,643.149 -200.908,755.357 2.275,22.08 -0.537,44.805 -8.13,65.718 -26.885,74.067 -24.468,141.167 7.188,199.438 55.996,103.071 207.1,185.659 436.987,238.833 266.836,61.729 548.935,61.729 815.771,0 229.888,-53.174 380.991,-135.762 436.987,-238.833 31.656,-58.271 34.073,-125.371 7.183,-199.438 -7.588,-20.898 -10.4,-43.623 -8.13,-65.718 11.528,-112.207 31.108,-498.291 -200.908,-755.357 C 2486.441,745.212 2270.098,664.197 1987.627,664.197 Z"
   id="path59" />
					</g>
				</g>
				<g
   id="g72">
					<g
   id="g62">
						<path
   style="fill:#f2c5a7"
   d="m 1987.626,1233.697 h 639.38 c 0,0 49.534,150.514 36.061,396.344 -3.816,69.631 -48.347,130.766 -113.695,155.109 -97.685,36.39 -272.71,78.115 -561.746,78.115 -289.036,0 -464.062,-41.725 -561.746,-78.115 -65.348,-24.344 -109.878,-85.479 -113.695,-155.109 -13.474,-245.83 36.061,-396.344 36.061,-396.344 z"
   id="path61" />
					</g>
					<g
   id="g66">
						<g
   id="g63">
							<path
   style="fill:#000072"
   d="m 1807.466,1646.582 c -14.124,-4.072 -26.987,-9.546 -39.597,-15 -12.527,-5.579 -24.602,-11.509 -36.326,-17.813 -11.807,-6.177 -23.276,-12.695 -34.604,-19.38 -11.201,-6.89 -22.529,-13.54 -33.804,-20.222 -22.527,-13.538 -45.444,-26.042 -68.572,-38.84 -23.14,-13.049 -46.951,-24.207 -71.553,-38.052 l -0.415,-0.234 c -3.989,-2.246 -5.405,-7.3 -3.159,-11.292 1.418,-2.522 4.014,-4.016 6.699,-4.209 7.2,-0.459 14.431,-0.586 21.697,-0.537 3.608,0.11 7.295,0.032 10.886,0.317 3.562,0.376 7.163,0.676 10.732,1.13 7.144,0.876 14.387,1.689 21.472,3.015 7.017,1.489 14.06,3.032 21.077,4.734 27.8,7.341 54.919,17.498 80.244,30.708 3.179,1.628 6.45,3.118 9.548,4.875 l 9.287,5.32 c 6.187,3.55 12.439,7.009 18.345,10.994 5.908,3.979 11.917,7.815 17.529,12.212 5.574,4.456 11.272,8.711 16.577,13.501 10.698,9.448 20.801,19.614 29.89,30.876 9.072,11.296 17.4,23.225 23.721,37.393 1.746,3.916 -0.012,8.508 -3.931,10.256 -1.738,0.776 -3.608,0.862 -5.305,0.374 z"
   id="path62" />
						</g>
						<g
   id="g64">
							<path
   style="fill:#000072"
   d="m 1562.448,1500.12 c 0,0 -65.599,177.224 73.681,248.382 27.361,13.979 59.229,17.731 88.387,8.042 34.635,-11.51 71.607,-42.875 64.883,-125.441 -10e-4,0 -57.294,-71.432 -226.951,-130.983 z"
   id="path63" />
						</g>
						<g
   id="g65">
							<ellipse
   style="fill:#ffffff"
   cx="1719.462"
   cy="1638.5"
   rx="40.367001"
   ry="52.511002"
   id="ellipse64" />
						</g>
					</g>
					<g
   id="g70">
						<g
   id="g67">
							<path
   style="fill:#000072"
   d="m 2158.113,1636.079 c 6.321,-14.167 14.648,-26.096 23.718,-37.393 9.089,-11.262 19.194,-21.428 29.89,-30.876 5.305,-4.79 11.006,-9.045 16.577,-13.501 5.613,-4.397 11.624,-8.232 17.529,-12.212 5.906,-3.984 12.158,-7.444 18.347,-10.994 l 9.285,-5.32 c 3.098,-1.758 6.372,-3.247 9.551,-4.875 25.322,-13.21 52.444,-23.367 80.244,-30.708 7.017,-1.702 14.06,-3.245 21.077,-4.734 7.083,-1.326 14.329,-2.139 21.47,-3.015 3.572,-0.454 7.17,-0.754 10.732,-1.13 3.594,-0.286 7.278,-0.208 10.886,-0.317 7.266,-0.049 14.5,0.078 21.699,0.537 4.57,0.293 8.037,4.233 7.747,8.804 -0.186,2.886 -1.826,5.334 -4.16,6.672 l -0.464,0.259 c -24.6,13.845 -48.413,25.002 -71.553,38.052 -23.127,12.798 -46.045,25.303 -68.569,38.84 -11.274,6.682 -22.605,13.333 -33.804,20.222 -11.328,6.685 -22.798,13.203 -34.607,19.38 -11.724,6.304 -23.796,12.234 -36.323,17.813 -12.61,5.454 -25.474,10.928 -39.597,15 l -0.43,0.125 c -4.121,1.187 -8.428,-1.191 -9.614,-5.313 -0.53,-1.83 -0.349,-3.705 0.369,-5.316 z"
   id="path66" />
						</g>
						<g
   id="g68">
							<path
   style="fill:#000072"
   d="m 2412.805,1500.12 c 0,0 65.599,177.224 -73.68,248.382 -27.361,13.979 -59.229,17.731 -88.387,8.042 -34.635,-11.51 -71.606,-42.875 -64.883,-125.441 0,0 57.292,-71.432 226.95,-130.983 z"
   id="path67" />
						</g>
						<g
   id="g69">
							<ellipse
   style="fill:#ffffff"
   cx="2255.791"
   cy="1638.5"
   rx="40.367001"
   ry="52.511002"
   id="ellipse68" />
						</g>
					</g>
					<g
   id="g71">
						<path
   style="fill:#000072"
   d="m 1987.627,1884.749 c -294.184,0 -471.933,-43.213 -569.248,-79.468 -73.242,-27.28 -123.345,-95.605 -127.646,-174.063 -13.54,-247.036 35.034,-397.935 37.109,-404.238 2.9,-8.809 11.128,-14.766 20.405,-14.766 h 1278.76 c 9.278,0 17.505,5.957 20.405,14.771 2.075,6.299 50.645,157.197 37.104,404.233 -4.302,78.462 -54.404,146.782 -127.646,174.063 -97.304,36.255 -275.053,79.468 -569.243,79.468 z m -623.183,-629.566 c -11.436,43.135 -41.514,178.311 -30.811,373.682 3.369,61.392 42.52,114.834 99.746,136.152 94.004,35.02 266.465,76.763 554.248,76.763 287.788,0 460.244,-41.743 554.243,-76.763 57.227,-21.313 96.377,-74.756 99.746,-136.152 10.703,-195.356 -19.365,-330.527 -30.806,-373.682 z"
   id="path70" />
					</g>
				</g>
				<g
   style="opacity:0.3"
   id="g73">
					<path
   style="fill:#000072"
   d="m 2755.259,1109.616 c 0,0 -298.824,54.849 -767.632,54.849 -468.808,0 -767.633,-54.849 -767.633,-54.849 -107.387,33.772 -60.215,155.596 -60.215,155.596 0,0 234.74,55.778 827.848,55.778 593.108,0 827.848,-55.778 827.848,-55.778 0,0 47.171,-121.824 -60.216,-155.596 z"
   id="path72" />
				</g>
				<g
   id="g77">
					<g
   id="g74">
						<path
   style="fill:#f72163"
   d="m 2755.259,1050.536 c 0,0 -298.824,54.849 -767.632,54.849 -468.808,0 -767.633,-54.849 -767.633,-54.849 -107.387,33.772 -60.215,155.596 -60.215,155.596 0,0 234.74,55.778 827.848,55.778 593.108,0 827.848,-55.778 827.848,-55.778 0,0 47.171,-121.824 -60.216,-155.596 z"
   id="path73" />
					</g>
					<g
   style="opacity:0.3"
   id="g75">
						<path
   style="fill:#23233f"
   d="m 2815.474,1130.938 c 0,0 -234.74,55.778 -827.848,55.778 -593.108,0 -827.848,-55.778 -827.848,-55.778 0,0 -2.737,-7.114 -5.392,-18.32 -13.547,44.478 5.392,93.513 5.392,93.513 0,0 234.74,55.778 827.848,55.778 593.108,0 827.848,-55.778 827.848,-55.778 0,0 18.939,-49.035 5.392,-93.513 -2.655,11.206 -5.392,18.32 -5.392,18.32 z"
   id="path74" />
					</g>
					<g
   id="g76">
						<path
   style="fill:#000072"
   d="m 1987.627,1283.396 c -588.857,0 -823.135,-54.063 -832.817,-56.362 -6.88,-1.636 -12.515,-6.553 -15.068,-13.145 -1.079,-2.783 -26.094,-68.818 0.415,-123.935 13.853,-28.794 38.545,-48.955 73.394,-59.912 3.33,-1.05 6.875,-1.274 10.322,-0.64 2.974,0.547 302.617,54.497 763.755,54.497 461.138,0 760.781,-53.95 763.755,-54.497 3.438,-0.635 6.987,-0.41 10.322,0.64 34.849,10.957 59.541,31.118 73.389,59.912 26.513,55.117 1.494,121.152 0.415,123.935 -2.554,6.592 -8.188,11.509 -15.068,13.145 -9.684,2.299 -243.961,56.362 -832.814,56.362 z m -811.118,-95.708 c 54.336,10.713 300.195,52.739 811.118,52.739 510.884,0 756.748,-42.021 811.113,-52.739 4.595,-17.139 10.933,-51.641 -2.446,-79.272 -8.027,-16.582 -22.031,-28.32 -42.715,-35.781 -43.261,7.383 -335.054,54.233 -765.952,54.233 -430.898,0 -722.69,-46.851 -765.952,-54.233 -20.684,7.461 -34.688,19.204 -42.715,35.781 -13.378,27.622 -7.05,62.109 -2.451,79.272 z"
   id="path75" />
					</g>
				</g>
			</g>
			<g
   id="g79">
				<polygon
   style="fill:#d3d3e5"
   points="1813.728,2089.314 1938.042,2174.327 1898.699,2028.954 1991.412,1897.853 1832.808,1933.414 1703.447,1844.078 1745.209,1995.641 1659.411,2133.693 "
   id="polygon78" />
			</g>
			<g
   style="opacity:0.3"
   id="g80">
				<polygon
   style="fill:#000072"
   points="1659.411,2133.693 1824.789,2014.897 1703.447,1844.078 1745.209,1995.641 "
   id="polygon79" />
			</g>
			<g
   style="opacity:0.3"
   id="g81">
				<polygon
   style="fill:#000072"
   points="1938.042,2174.327 1830.912,2025.711 1991.412,1897.853 1898.699,2028.954 "
   id="polygon80" />
			</g>
			<g
   id="g82">
				
					<circle
   transform="matrix(0.9746,-0.2241,0.2241,0.9746,-405.0534,460.0763)"
   style="fill:#000072"
   cx="1824.7889"
   cy="2014.897"
   id="ellipse81"
   r="28.878" />
			</g>
			<g
   id="g83">
				<path
   style="fill:#000072"
   d="m 1938.043,2190.442 c -3.174,0 -6.353,-0.938 -9.097,-2.813 l -118.057,-80.732 -147.026,42.28 c -6.401,1.846 -13.286,-0.444 -17.305,-5.767 -4.023,-5.317 -4.351,-12.559 -0.835,-18.223 l 82.08,-132.061 -39.888,-144.766 c -1.802,-6.533 0.679,-13.496 6.201,-17.417 5.527,-3.921 12.92,-3.975 18.486,-0.122 l 123.56,85.327 151.724,-34.019 c 6.528,-1.465 13.232,1.24 16.934,6.787 3.696,5.547 3.599,12.798 -0.254,18.237 l -88.335,124.907 37.363,138.057 c 1.763,6.514 -0.718,13.438 -6.221,17.344 -2.792,1.985 -6.059,2.981 -9.33,2.981 z m -124.317,-117.241 c 3.213,0 6.387,0.962 9.097,2.813 l 88.252,60.352 -27.93,-103.203 c -1.255,-4.634 -0.376,-9.59 2.397,-13.511 l 68.535,-96.914 -117.744,26.401 c -4.375,0.996 -8.979,0.093 -12.681,-2.466 l -92.901,-64.155 29.99,108.843 c 1.196,4.336 0.527,8.97 -1.846,12.788 l -63.701,102.485 114.077,-32.803 c 1.467,-0.425 2.966,-0.63 4.455,-0.63 z"
   id="path82" />
			</g>
			<g
   id="g84">
				<polygon
   style="fill:#d3d3e5"
   points="2006.577,2248.347 2020.218,2398.331 2107.23,2275.408 2267.351,2263.38 2138.917,2163.759 2125.394,2007.131 2035.151,2135.861 1874.076,2157.646 "
   id="polygon83" />
			</g>
			<g
   style="opacity:0.3"
   id="g85">
				<polygon
   style="fill:#000072"
   points="1874.076,2157.646 2070.992,2209.476 2125.394,2007.131 2035.151,2135.861 "
   id="polygon84" />
			</g>
			<g
   style="opacity:0.3"
   id="g86">
				<polygon
   style="fill:#000072"
   points="2020.218,2398.331 2066.555,2221.084 2267.351,2263.38 2107.23,2275.408 "
   id="polygon85" />
			</g>
			<g
   id="g87">
				
					<circle
   transform="matrix(0.7071,-0.7071,0.7071,0.7071,-955.7557,2111.5532)"
   style="fill:#000072"
   cx="2070.9919"
   cy="2209.4761"
   id="ellipse86"
   r="28.878" />
			</g>
			<g
   id="g88">
				<path
   style="fill:#000072"
   d="m 2020.215,2414.446 c -1.392,0 -2.798,-0.181 -4.185,-0.552 -6.519,-1.753 -11.25,-7.383 -11.86,-14.102 l -12.954,-142.432 -126.24,-86.421 c -5.503,-3.765 -8.115,-10.527 -6.577,-17.017 1.538,-6.484 6.914,-11.353 13.521,-12.246 l 154.087,-20.84 86.196,-122.954 c 3.896,-5.552 10.859,-8.062 17.378,-6.313 6.543,1.763 11.284,7.427 11.87,14.175 l 12.91,149.604 122.866,95.303 c 5.263,4.082 7.471,10.991 5.552,17.373 -1.924,6.382 -7.573,10.923 -14.223,11.426 l -152.554,11.455 -82.637,116.738 c -3.067,4.337 -8.008,6.803 -13.15,6.803 z M 1917.73,2168 l 97.949,67.051 c 3.965,2.715 6.509,7.056 6.943,11.836 l 9.683,106.479 61.777,-87.271 c 2.774,-3.916 7.153,-6.396 11.943,-6.758 l 118.364,-8.887 -95.351,-73.965 c -3.55,-2.754 -5.791,-6.865 -6.177,-11.343 l -9.707,-112.48 -64.81,92.446 c -2.578,3.682 -6.582,6.118 -11.035,6.719 z"
   id="path87" />
			</g>
			<g
   id="g89">
				<polygon
   style="fill:#d3d3e5"
   points="1937.63,2022.671 1883.26,2163.117 2015.803,2091.608 2164.615,2151.924 2093.767,2005.636 2151.192,1859.289 2013.176,1934.567 1859.176,1882.57 "
   id="polygon88" />
			</g>
			<g
   style="opacity:0.3"
   id="g90">
				<polygon
   style="fill:#000072"
   points="1859.176,1882.57 2012.606,2016.441 2151.192,1859.289 2013.176,1934.567 "
   id="polygon89" />
			</g>
			<g
   style="opacity:0.3"
   id="g91">
				<polygon
   style="fill:#000072"
   points="1883.26,2163.117 2003.477,2024.873 2164.615,2151.924 2015.803,2091.608 "
   id="polygon90" />
			</g>
			<g
   id="g92">
				
					<circle
   transform="matrix(0.998,-0.0627,0.0627,0.998,-122.3873,130.0633)"
   style="fill:#000072"
   cx="2012.606"
   cy="2016.441"
   id="ellipse91"
   r="28.878" />
			</g>
			<g
   id="g93">
				<path
   style="fill:#000072"
   d="m 1883.262,2179.231 c -3.843,0 -7.651,-1.372 -10.664,-4.028 -5.058,-4.463 -6.802,-11.606 -4.365,-17.9 l 51.631,-133.374 -74.746,-133.486 c -3.257,-5.815 -2.598,-13.037 1.66,-18.164 4.258,-5.127 11.221,-7.109 17.554,-4.976 l 147.319,49.746 131.826,-71.904 c 5.952,-3.252 13.296,-2.417 18.374,2.061 5.078,4.483 6.816,11.665 4.341,17.969 l -54.854,139.785 67.778,139.946 c 2.906,5.996 1.816,13.169 -2.739,18.032 -4.555,4.863 -11.631,6.431 -17.817,3.921 l -141.782,-57.466 -125.869,67.905 c -2.407,1.298 -5.034,1.933 -7.647,1.933 z m 10.43,-267.998 57.993,103.569 c 2.349,4.189 2.705,9.209 0.967,13.687 l -38.594,99.702 94.092,-50.762 c 4.224,-2.285 9.248,-2.559 13.706,-0.752 l 110.005,44.585 -52.598,-108.604 c -1.958,-4.043 -2.139,-8.726 -0.498,-12.905 l 41.24,-105.103 -99.116,54.063 c -3.955,2.149 -8.618,2.559 -12.871,1.123 z"
   id="path92" />
			</g>
			<g
   id="g102">
				<g
   id="g94">
					<path
   style="fill:#6f6f87"
   d="m 1900.724,2447.043 c -91.629,71.434 -234.067,139.645 -446.488,184.492 -48.392,10.205 -97.429,-1.343 -135.08,-28.788 -26.371,-19.174 -47.157,-46.19 -58.275,-78.953 -26.21,-77.234 -12.461,-200.981 121.975,-396.377 0,0 70.091,28.949 149.581,47.479 0,0 -34.697,57.254 -48.553,106.721 0,0 97.268,-61.444 216.235,-116.443 13.803,-6.391 27.875,-12.676 42.162,-18.798 0,0 22.451,-91.468 83.733,-89.749 61.283,1.719 52.636,56.073 52.636,56.073 0,0 39.453,-13.684 81.371,-2.843 v 0 l 0.063,0.019 c 3.659,0.948 7.329,2.016 11.001,3.365 h 0.054 c 22.773,8.379 45.331,24.975 61.766,55.858 28.682,53.872 6.66,169.724 -132.179,277.948 z"
   id="path93" />
				</g>
				<g
   id="g95">
					<path
   style="fill:#f2c5a7"
   d="m 1900.724,2447.043 c -176.436,-103.283 -200.606,-281.868 -200.606,-281.868 13.803,-6.391 27.875,-12.676 42.162,-18.798 0,0 22.451,-91.468 83.733,-89.749 61.283,1.719 52.636,56.073 52.636,56.073 0,0 104.734,-36.522 154.254,56.395 28.682,53.871 6.66,169.723 -132.179,277.947 z"
   id="path94" />
				</g>
				<g
   style="opacity:0.3"
   id="g96">
					<path
   style="fill:#000072"
   d="m 1360.758,2383.77 c 0,0 -0.624,-45.474 37.036,-87.684 14.334,-16.066 24.456,-35.408 28.194,-56.612 4.273,-24.24 14.403,-56.374 38.353,-78.407 l 68.122,13.831 c 0,0 -26.401,39.111 -48.556,106.728 0,0 -96.39,67.616 -123.149,102.144 z"
   id="path95" />
				</g>
				<g
   style="opacity:0.3"
   id="g97">
					<path
   style="fill:#000072"
   d="m 1900.724,2447.043 c -91.629,71.434 -234.067,139.645 -446.488,184.492 -48.392,10.205 -97.429,-1.343 -135.08,-28.788 0,0 770.519,-176.705 640.864,-492.894 0,0 3.974,1.182 11.064,3.384 h 0.054 c 22.773,8.379 45.331,24.975 61.766,55.858 28.681,53.872 6.659,169.724 -132.18,277.948 z"
   id="path96" />
				</g>
				<g
   style="opacity:0.5"
   id="g98">
					<path
   style="fill:#ffffff"
   d="m 1303.849,2534.536 c -26.015,-76.659 -12.6,-199.177 119.052,-392.058 -24.604,-8.684 -40.045,-15.061 -40.045,-15.061 -134.435,195.396 -148.185,319.143 -121.975,396.377 20.992,61.849 76.459,103.088 138.726,110.273 -43.768,-17.257 -79.767,-52.415 -95.758,-99.531 z"
   id="path97" />
				</g>
				<g
   id="g99">
					<path
   style="fill:#000072"
   d="m 1495.654,2299.614 -16.362,10.132 c -5.583,3.381 -11.128,6.86 -16.66,10.374 -11.172,6.892 -22.2,14.041 -33.342,21.118 -11.16,7.073 -21.877,14.722 -32.83,22.214 -10.864,7.6 -21.433,15.583 -32.144,23.657 l -0.088,0.066 c -2.175,1.641 -5.271,1.208 -6.912,-0.969 -1.311,-1.741 -1.292,-4.075 -0.117,-5.776 7.764,-11.226 16.101,-22.139 25.007,-32.512 8.789,-10.51 18.201,-20.447 27.764,-30.237 9.529,-9.849 19.541,-19.175 29.792,-28.252 10.452,-8.962 20.737,-17.573 32.397,-25.791 9.702,-6.841 23.115,-4.519 29.954,5.186 6.841,9.705 4.519,23.115 -5.186,29.956 -0.332,0.234 -0.669,0.457 -1.011,0.671 z"
   id="path98" />
				</g>
				<g
   id="g100">
					<path
   style="fill:#000072"
   d="m 1889.893,2465.593 c -183.379,-107.363 -210.044,-289.805 -211.089,-297.52 l 42.578,-5.771 -21.289,2.886 21.284,-2.93 c 0.234,1.689 25.459,169.79 190.225,266.255 z"
   id="path99" />
				</g>
				<g
   id="g101">
					<path
   style="fill:#000072"
   d="m 1418.687,2656.736 c -79.473,0.01 -152.134,-49.419 -178.145,-126.006 -35.371,-104.15 6.548,-243.945 124.59,-415.513 5.747,-8.345 16.528,-11.538 25.898,-7.681 0.688,0.283 69.536,28.535 146.309,46.44 6.704,1.563 12.251,6.25 14.922,12.593 2.671,6.343 2.139,13.589 -1.431,19.473 -0.2,0.327 -11.909,19.741 -24.082,45.083 47.046,-27.002 119.683,-66.44 197.798,-100.469 8.843,-27.017 37.422,-95.547 99.663,-95.547 0.801,0 1.602,0.01 2.412,0.034 31.968,0.903 49.429,14.048 58.452,24.917 6.924,8.35 10.859,17.49 13.032,25.928 46.807,-7.261 115.879,1.895 153.755,73.022 20.723,38.931 17.28,96.069 -9.224,152.847 -22.007,47.158 -70.752,117.896 -177.983,187.08 -103.74,66.929 -240.327,118.608 -405.972,153.604 -13.392,2.833 -26.791,4.195 -39.994,4.195 z m -27.724,-503.067 c -101.23,151.226 -139.165,276.592 -109.736,363.242 23.34,68.735 95.825,108.96 168.574,93.589 406.558,-85.889 522.798,-250.171 553.901,-316.816 24.517,-52.524 21.362,-93.574 10.229,-114.478 -40.039,-75.2 -124.663,-47.393 -128.252,-46.172 -7.139,2.437 -15.049,0.962 -20.806,-3.887 -5.762,-4.854 -8.599,-12.354 -7.417,-19.79 v 0 c -0.01,0.01 1.563,-13.608 -5.596,-22.031 -4.907,-5.771 -13.804,-8.877 -26.45,-9.233 -0.342,-0.01 -0.679,-0.015 -1.016,-0.015 -41.738,0 -61.064,72.734 -61.25,73.477 -1.626,6.519 -6.226,11.948 -12.407,14.59 -133.984,57.3 -254.16,132.886 -255.356,133.643 -7.51,4.741 -17.168,4.38 -24.302,-0.928 -7.129,-5.308 -10.254,-14.453 -7.866,-23.013 8.721,-31.255 24.937,-64.766 36.733,-86.938 -46.913,-12.5 -87.465,-27.056 -108.983,-35.24 z"
   id="path100" />
				</g>
			</g>
		</g>
	</g></g>
<text
   xml:space="preserve"
   style="font-weight:bold;font-size:13.3333px;line-height:normal;font-family:'Noto Serif CJK HK';-inkscape-font-specification:'Noto Serif CJK HK, Bold';text-align:start;text-decoration-color:#000000;writing-mode:lr-tb;direction:ltr;text-anchor:start;fill:none;stroke:#b63000;stroke-width:1.25981;-inkscape-stroke:none"
   x="1137.8268"
   y="4143.2446"
   id="text105"><tspan
     sodipodi:role="line"
     id="tspan105"
     x="1137.8268"
     y="4143.2446" /></text><text
   xml:space="preserve"
   style="font-weight:bold;font-size:96px;line-height:normal;font-family:'Noto Serif CJK HK';-inkscape-font-specification:'Noto Serif CJK HK, Bold';text-align:start;text-decoration-color:#000000;writing-mode:lr-tb;direction:ltr;text-anchor:start;fill:#000000;fill-opacity:1;stroke:none;stroke-width:1.25981;-inkscape-stroke:none"
   x="-320.36032"
   y="3971.4238"
   id="text106"><tspan
     sodipodi:role="line"
     id="tspan106"
     x="-320.36032"
     y="3971.4238"
     style="font-style:normal;font-variant:normal;font-weight:normal;font-stretch:normal;font-size:96px;font-family:'Noto Serif CJK HK';-inkscape-font-specification:'Noto Serif CJK HK';stroke-width:1.25981">Free with attribution</tspan><tspan
     sodipodi:role="line"
     x="-320.36032"
     y="4091.4238"
     style="font-style:normal;font-variant:normal;font-weight:normal;font-stretch:normal;font-size:96px;font-family:'Noto Serif CJK HK';-inkscape-font-specification:'Noto Serif CJK HK';stroke-width:1.25981"
     id="tspan107">Source:</tspan><tspan
     sodipodi:role="line"
     x="-320.36032"
     y="4211.4238"
     style="font-style:normal;font-variant:normal;font-weight:normal;font-stretch:normal;font-size:96px;font-family:'Noto Serif CJK HK';-inkscape-font-specification:'Noto Serif CJK HK';stroke-width:1.25981"
     id="tspan108">https://www.freepik.com/free-vector/cute-ninja-with-shuriken-cartoon-flat-cartoon-style_12873501.htm</tspan></text><g
   id="g214"
   transform="translate(78.91492,-327.99014)"><g
     id="g105"
     transform="matrix(0.008,0,0,0.00675,-768.90036,2980.7528)"
     style="fill:none;stroke-width:136.082"
     inkscape:export-filename="favicon.ico"
     inkscape:export-xdpi="96"
     inkscape:export-ydpi="96">
		<rect
   style="fill:none;stroke-width:136.082"
   width="4000"
   height="4000"
   id="rect2"
   x="0"
   y="0" />
	</g><g
     id="g183"
     style="stroke-width:76.5978"
     transform="matrix(0.01305501,0,0,0.01305501,-782.19351,2976.5523)">
				<g
   id="g157"
   style="stroke-width:76.5978">
					<g
   id="g154"
   style="stroke-width:76.5978">
						<path
   style="fill:#f72163;stroke-width:76.5978"
   d="m 2755.259,1050.536 c 0,0 15.225,-154.44 196.072,-219.07 C 3126.846,768.74 3126.271,500 3126.271,500 c 0,0 108.187,29.924 135.809,92.074 27.622,62.15 -39.513,233.859 -253.41,356.785 -213.897,122.926 -193.195,257.272 -193.195,257.272 0,0 -51.424,-45.863 -60.216,-155.595 z"
   id="path153" />
					</g>
					<g
   style="opacity:0.3;stroke-width:76.5978"
   id="g155">
						<path
   style="fill:#000072;stroke-width:76.5978"
   d="m 3262.079,592.074 c -13.427,-30.212 -45.884,-52.786 -75.705,-68.032 6.847,7.684 12.606,16.023 16.624,25.064 27.622,62.15 -39.513,233.859 -253.41,356.785 -125.476,72.111 -170.206,148.138 -185.758,198.683 17.367,70.959 51.644,101.558 51.644,101.558 0,0 -20.702,-134.346 193.195,-257.273 213.897,-122.926 281.033,-294.636 253.41,-356.785 z"
   id="path154" />
					</g>
					<g
   id="g156"
   style="stroke-width:76.5978">
						<path
   style="fill:#000072;stroke-width:76.5978"
   d="m 2815.479,1227.615 c -5.161,0 -10.273,-1.855 -14.306,-5.449 -2.358,-2.109 -57.954,-52.944 -67.329,-169.917 -0.103,-1.27 -0.088,-2.549 0.034,-3.823 0.679,-6.855 18.765,-168.765 210.22,-237.188 159.389,-56.968 160.693,-308.657 160.688,-311.196 -0.015,-6.714 3.115,-13.052 8.457,-17.129 5.337,-4.072 12.285,-5.42 18.755,-3.623 4.819,1.333 118.33,33.447 149.717,104.058 33.764,75.977 -40.225,256.489 -262.344,384.141 -198.823,114.263 -182.847,234.175 -182.661,235.371 1.377,8.96 -3.013,17.822 -10.982,22.149 -3.218,1.751 -6.743,2.606 -10.249,2.606 z m -38.628,-176.665 c 3.564,41.313 13.638,72.632 24.057,94.995 15.615,-55.234 62.319,-138.281 197.056,-215.713 201.465,-115.781 267.188,-278.354 244.482,-329.434 -14.736,-33.159 -62.193,-58.008 -95.957,-71.25 -5.474,74.746 -34.507,267.314 -187.929,322.148 -156.904,56.075 -179.35,182.032 -181.709,199.254 z"
   id="path155" />
					</g>
				</g>
				<g
   id="g161"
   style="stroke-width:76.5978">
					<g
   id="g158"
   style="stroke-width:76.5978">
						<path
   style="fill:#f72163;stroke-width:76.5978"
   d="m 2715.532,1067.798 c 0,0 133.9,-78.448 292.477,29.885 153.902,105.14 370.993,-53.268 370.993,-53.268 0,0 39.372,105.117 5.323,163.991 -34.05,58.875 -212.431,105.474 -437.597,4.662 -225.166,-100.812 -321.694,-5.105 -321.694,-5.105 0,0 6.884,-68.56 90.498,-140.165 z"
   id="path157" />
					</g>
					<g
   style="opacity:0.3;stroke-width:76.5978"
   id="g159">
						<path
   style="fill:#000072;stroke-width:76.5978"
   d="m 3384.325,1138.583 c -34.05,58.874 -212.431,105.474 -437.597,4.662 -135.474,-60.655 -224.321,-50.16 -273.655,-32.182 -43.654,53.658 -48.039,96.9 -48.039,96.9 0,0 96.528,-95.707 321.694,5.105 225.166,100.812 403.547,54.213 437.597,-4.662 16.25,-28.098 15.766,-66.714 10.83,-99.424 -2.178,10.581 -5.643,20.632 -10.83,29.601 z"
   id="path158" />
					</g>
					<g
   id="g160"
   style="stroke-width:76.5978">
						<path
   style="fill:#000072;stroke-width:76.5978"
   d="m 3201.441,1293.992 c -74.907,0 -165.278,-17.344 -263.491,-61.313 -209.287,-93.701 -296.929,-10.313 -297.788,-9.463 -6.435,6.387 -16.191,8.037 -24.37,4.141 -8.184,-3.901 -13.037,-12.519 -12.134,-21.543 0.317,-3.149 8.77,-78.003 97.9,-154.331 0.972,-0.83 2.012,-1.572 3.115,-2.217 5.947,-3.491 147.583,-84.004 315.454,30.679 139.424,95.249 344.17,-51.396 346.221,-52.891 5.425,-3.945 12.388,-5.147 18.823,-3.208 6.431,1.929 11.592,6.748 13.945,13.037 1.753,4.678 42.49,115.391 3.809,182.28 -24.14,41.738 -98.061,74.819 -201.484,74.829 z M 2758.16,1145.339 c 51.313,0 116.689,12.007 197.348,48.12 212.085,94.956 382.246,52.578 410.22,4.19 18.169,-31.411 10.376,-84.409 1.25,-119.507 -63.696,39.502 -236.558,129.185 -371.089,37.28 -137.041,-93.623 -253.701,-37.446 -268.028,-29.888 -31.323,27.158 -50.732,53.706 -62.695,75.273 23.238,-8.553 54.063,-15.468 92.994,-15.468 z"
   id="path159" />
					</g>
				</g>
				<g
   id="g166"
   style="stroke-width:76.5978">
					<g
   id="g162"
   style="stroke-width:76.5978">
						<path
   style="fill:#6f6f87;stroke-width:76.5978"
   d="m 1987.626,642.714 c 923.548,0 882.87,848.817 865.299,1019.832 -1.953,19.014 0.431,38.222 6.953,56.189 98.953,272.607 -188.541,403.855 -459.522,466.535 -271.397,62.776 -554.063,62.776 -825.46,0 -270.981,-62.68 -558.476,-193.928 -459.522,-466.535 6.522,-17.967 8.907,-37.175 6.953,-56.189 -17.57,-171.014 -58.249,-1019.832 865.299,-1019.832 z"
   id="path161" />
					</g>
					<g
   style="opacity:0.3;stroke-width:76.5978"
   id="g163">
						<path
   style="fill:#000072;stroke-width:76.5978"
   d="m 2859.879,1718.735 c -6.522,-17.967 -8.906,-37.175 -6.953,-56.189 13.384,-130.267 40.143,-653.799 -356.044,-895.895 302.179,242.156 279.935,695.38 268.517,812.64 -1.756,18.034 0.388,36.252 6.25,53.293 88.944,258.557 -169.47,383.04 -413.041,442.489 -243.945,59.541 -498.019,59.541 -741.964,0 -243.571,-59.45 -501.985,-183.933 -413.041,-442.49 5.862,-17.041 8.006,-35.259 6.25,-53.293 -11.417,-117.26 -33.661,-570.482 268.516,-812.639 -396.185,242.096 -369.427,765.627 -356.043,895.894 1.954,19.014 -0.431,38.222 -6.953,56.189 -98.953,272.607 188.541,403.855 459.522,466.535 271.397,62.776 554.064,62.776 825.461,0 270.982,-62.679 558.476,-193.926 459.523,-466.534 z"
   id="path162" />
					</g>
					<g
   style="opacity:0.5;stroke-width:76.5978"
   id="g164">
						<path
   style="fill:#ffffff;stroke-width:76.5978"
   d="m 1987.626,642.714 c -804,0 -877.24,643.269 -871.138,922.639 5.256,-240.98 78.566,-648.295 491.368,-802.186 14.777,20.24 72.389,25.283 137.241,10.656 63.075,-14.226 111.968,-42.315 118.887,-66.499 39.191,-3.58 80.307,-5.53 123.641,-5.53 751.505,0 864.561,562.02 871.138,863.555 6.102,-279.371 -67.14,-922.635 -871.137,-922.635 z"
   id="path163" />
					</g>
					<g
   id="g165"
   style="stroke-width:76.5978">
						<path
   style="fill:#000072;stroke-width:76.5978"
   d="m 1987.627,2253.596 c -140.493,0 -280.981,-15.801 -417.573,-47.393 -245.669,-56.826 -402.134,-144.365 -465.059,-260.19 -37.778,-69.546 -41.084,-148.476 -9.819,-234.609 5.396,-14.854 7.393,-30.986 5.776,-46.655 -11.982,-116.67 -32.134,-518.32 211.753,-788.545 152.7,-169.189 379.775,-254.976 674.922,-254.976 295.142,0 522.217,85.786 674.917,254.976 243.887,270.225 223.735,671.875 211.753,788.54 -1.612,15.679 0.385,31.816 5.776,46.665 31.265,86.128 27.964,165.063 -9.819,234.604 -62.915,115.825 -219.385,203.364 -465.054,260.19 -136.591,31.592 -277.079,47.393 -417.573,47.393 z m 0,-1589.399 c -282.471,0 -498.813,81.016 -643.022,240.796 -232.012,257.07 -212.437,643.149 -200.908,755.357 2.275,22.08 -0.537,44.805 -8.13,65.718 -26.885,74.067 -24.468,141.167 7.188,199.438 55.996,103.071 207.1,185.659 436.987,238.833 266.836,61.729 548.935,61.729 815.771,0 229.888,-53.174 380.991,-135.762 436.987,-238.833 31.656,-58.271 34.073,-125.371 7.183,-199.438 -7.588,-20.898 -10.4,-43.623 -8.13,-65.718 11.528,-112.207 31.108,-498.291 -200.908,-755.357 C 2486.441,745.212 2270.098,664.197 1987.627,664.197 Z"
   id="path164" />
					</g>
				</g>
				<g
   id="g177"
   style="stroke-width:76.5978">
					<g
   id="g167"
   style="stroke-width:76.5978">
						<path
   style="fill:#f2c5a7;stroke-width:76.5978"
   d="m 1987.626,1233.697 h 639.38 c 0,0 49.534,150.514 36.061,396.344 -3.816,69.631 -48.347,130.766 -113.695,155.109 -97.685,36.39 -272.71,78.115 -561.746,78.115 -289.036,0 -464.062,-41.725 -561.746,-78.115 -65.348,-24.344 -109.878,-85.479 -113.695,-155.109 -13.474,-245.83 36.061,-396.344 36.061,-396.344 z"
   id="path166" />
					</g>
					<g
   id="g171"
   style="stroke-width:76.5978">
						<g
   id="g168"
   style="stroke-width:76.5978">
							<path
   style="fill:#000072;stroke-width:76.5978"
   d="m 1807.466,1646.582 c -14.124,-4.072 -26.987,-9.546 -39.597,-15 -12.527,-5.579 -24.602,-11.509 -36.326,-17.813 -11.807,-6.177 -23.276,-12.695 -34.604,-19.38 -11.201,-6.89 -22.529,-13.54 -33.804,-20.222 -22.527,-13.538 -45.444,-26.042 -68.572,-38.84 -23.14,-13.049 -46.951,-24.207 -71.553,-38.052 l -0.415,-0.234 c -3.989,-2.246 -5.405,-7.3 -3.159,-11.292 1.418,-2.522 4.014,-4.016 6.699,-4.209 7.2,-0.459 14.431,-0.586 21.697,-0.537 3.608,0.11 7.295,0.032 10.886,0.317 3.562,0.376 7.163,0.676 10.732,1.13 7.144,0.876 14.387,1.689 21.472,3.015 7.017,1.489 14.06,3.032 21.077,4.734 27.8,7.341 54.919,17.498 80.244,30.708 3.179,1.628 6.45,3.118 9.548,4.875 l 9.287,5.32 c 6.187,3.55 12.439,7.009 18.345,10.994 5.908,3.979 11.917,7.815 17.529,12.212 5.574,4.456 11.272,8.711 16.577,13.501 10.698,9.448 20.801,19.614 29.89,30.876 9.072,11.296 17.4,23.225 23.721,37.393 1.746,3.916 -0.012,8.508 -3.931,10.256 -1.738,0.776 -3.608,0.862 -5.305,0.374 z"
   id="path167" />
						</g>
						<g
   id="g169"
   style="stroke-width:76.5978">
							<path
   style="fill:#000072;stroke-width:76.5978"
   d="m 1562.448,1500.12 c 0,0 -65.599,177.224 73.681,248.382 27.361,13.979 59.229,17.731 88.387,8.042 34.635,-11.51 71.607,-42.875 64.883,-125.441 -10e-4,0 -57.294,-71.432 -226.951,-130.983 z"
   id="path168" />
						</g>
						<g
   id="g170"
   style="stroke-width:76.5978">
							<ellipse
   style="fill:#ffffff;stroke-width:76.5978"
   cx="1719.462"
   cy="1638.5"
   rx="40.367001"
   ry="52.511002"
   id="ellipse169" />
						</g>
					</g>
					<g
   id="g175"
   style="stroke-width:76.5978">
						<g
   id="g172"
   style="stroke-width:76.5978">
							<path
   style="fill:#000072;stroke-width:76.5978"
   d="m 2158.113,1636.079 c 6.321,-14.167 14.648,-26.096 23.718,-37.393 9.089,-11.262 19.194,-21.428 29.89,-30.876 5.305,-4.79 11.006,-9.045 16.577,-13.501 5.613,-4.397 11.624,-8.232 17.529,-12.212 5.906,-3.984 12.158,-7.444 18.347,-10.994 l 9.285,-5.32 c 3.098,-1.758 6.372,-3.247 9.551,-4.875 25.322,-13.21 52.444,-23.367 80.244,-30.708 7.017,-1.702 14.06,-3.245 21.077,-4.734 7.083,-1.326 14.329,-2.139 21.47,-3.015 3.572,-0.454 7.17,-0.754 10.732,-1.13 3.594,-0.286 7.278,-0.208 10.886,-0.317 7.266,-0.049 14.5,0.078 21.699,0.537 4.57,0.293 8.037,4.233 7.747,8.804 -0.186,2.886 -1.826,5.334 -4.16,6.672 l -0.464,0.259 c -24.6,13.845 -48.413,25.002 -71.553,38.052 -23.127,12.798 -46.045,25.303 -68.569,38.84 -11.274,6.682 -22.605,13.333 -33.804,20.222 -11.328,6.685 -22.798,13.203 -34.607,19.38 -11.724,6.304 -23.796,12.234 -36.323,17.813 -12.61,5.454 -25.474,10.928 -39.597,15 l -0.43,0.125 c -4.121,1.187 -8.428,-1.191 -9.614,-5.313 -0.53,-1.83 -0.349,-3.705 0.369,-5.316 z"
   id="path171" />
						</g>
						<g
   id="g173"
   style="stroke-width:76.5978">
							<path
   style="fill:#000072;stroke-width:76.5978"
   d="m 2412.805,1500.12 c 0,0 65.599,177.224 -73.68,248.382 -27.361,13.979 -59.229,17.731 -88.387,8.042 -34.635,-11.51 -71.606,-42.875 -64.883,-125.441 0,0 57.292,-71.432 226.95,-130.983 z"
   id="path172" />
						</g>
						<g
   id="g174"
   style="stroke-width:76.5978">
							<ellipse
   style="fill:#ffffff;stroke-width:76.5978"
   cx="2255.791"
   cy="1638.5"
   rx="40.367001"
   ry="52.511002"
   id="ellipse173" />
						</g>
					</g>
					<g
   id="g176"
   style="stroke-width:76.5978">
						<path
   style="fill:#000072;stroke-width:76.5978"
   d="m 1987.627,1884.749 c -294.184,0 -471.933,-43.213 -569.248,-79.468 -73.242,-27.28 -123.345,-95.605 -127.646,-174.063 -13.54,-247.036 35.034,-397.935 37.109,-404.238 2.9,-8.809 11.128,-14.766 20.405,-14.766 h 1278.76 c 9.278,0 17.505,5.957 20.405,14.771 2.075,6.299 50.645,157.197 37.104,404.233 -4.302,78.462 -54.404,146.782 -127.646,174.063 -97.304,36.255 -275.053,79.468 -569.243,79.468 z m -623.183,-629.566 c -11.436,43.135 -41.514,178.311 -30.811,373.682 3.369,61.392 42.52,114.834 99.746,136.152 94.004,35.02 266.465,76.763 554.248,76.763 287.788,0 460.244,-41.743 554.243,-76.763 57.227,-21.313 96.377,-74.756 99.746,-136.152 10.703,-195.356 -19.365,-330.527 -30.806,-373.682 z"
   id="path175" />
					</g>
				</g>
				<g
   style="opacity:0.3;stroke-width:76.5978"
   id="g178">
					<path
   style="fill:#000072;stroke-width:76.5978"
   d="m 2755.259,1109.616 c 0,0 -298.824,54.849 -767.632,54.849 -468.808,0 -767.633,-54.849 -767.633,-54.849 -107.387,33.772 -60.215,155.596 -60.215,155.596 0,0 234.74,55.778 827.848,55.778 593.108,0 827.848,-55.778 827.848,-55.778 0,0 47.171,-121.824 -60.216,-155.596 z"
   id="path177" />
				</g>
				<g
   id="g182"
   style="stroke-width:76.5978">
					<g
   id="g179"
   style="stroke-width:76.5978">
						<path
   style="fill:#f72163;stroke-width:76.5978"
   d="m 2755.259,1050.536 c 0,0 -298.824,54.849 -767.632,54.849 -468.808,0 -767.633,-54.849 -767.633,-54.849 -107.387,33.772 -60.215,155.596 -60.215,155.596 0,0 234.74,55.778 827.848,55.778 593.108,0 827.848,-55.778 827.848,-55.778 0,0 47.171,-121.824 -60.216,-155.596 z"
   id="path178" />
					</g>
					<g
   style="opacity:0.3;stroke-width:76.5978"
   id="g180">
						<path
   style="fill:#23233f;stroke-width:76.5978"
   d="m 2815.474,1130.938 c 0,0 -234.74,55.778 -827.848,55.778 -593.108,0 -827.848,-55.778 -827.848,-55.778 0,0 -2.737,-7.114 -5.392,-18.32 -13.547,44.478 5.392,93.513 5.392,93.513 0,0 234.74,55.778 827.848,55.778 593.108,0 827.848,-55.778 827.848,-55.778 0,0 18.939,-49.035 5.392,-93.513 -2.655,11.206 -5.392,18.32 -5.392,18.32 z"
   id="path179" />
					</g>
					<g
   id="g181"
   style="stroke-width:76.5978">
						<path
   style="fill:#000072;stroke-width:76.5978"
   d="m 1987.627,1283.396 c -588.857,0 -823.135,-54.063 -832.817,-56.362 -6.88,-1.636 -12.515,-6.553 -15.068,-13.145 -1.079,-2.783 -26.094,-68.818 0.415,-123.935 13.853,-28.794 38.545,-48.955 73.394,-59.912 3.33,-1.05 6.875,-1.274 10.322,-0.64 2.974,0.547 302.617,54.497 763.755,54.497 461.138,0 760.781,-53.95 763.755,-54.497 3.438,-0.635 6.987,-0.41 10.322,0.64 34.849,10.957 59.541,31.118 73.389,59.912 26.513,55.117 1.494,121.152 0.415,123.935 -2.554,6.592 -8.188,11.509 -15.068,13.145 -9.684,2.299 -243.961,56.362 -832.814,56.362 z m -811.118,-95.708 c 54.336,10.713 300.195,52.739 811.118,52.739 510.884,0 756.748,-42.021 811.113,-52.739 4.595,-17.139 10.933,-51.641 -2.446,-79.272 -8.027,-16.582 -22.031,-28.32 -42.715,-35.781 -43.261,7.383 -335.054,54.233 -765.952,54.233 -430.898,0 -722.69,-46.851 -765.952,-54.233 -20.684,7.461 -34.688,19.204 -42.715,35.781 -13.378,27.622 -7.05,62.109 -2.451,79.272 z"
   id="path180" />
					</g>
				</g>
			</g></g><text
   xml:space="preserve"
   style="font-weight:bold;font-size:96px;line-height:normal;font-family:'Noto Serif CJK HK';-inkscape-font-specification:'Noto Serif CJK HK, Bold';text-align:start;text-decoration-color:#000000;writing-mode:lr-tb;direction:ltr;text-anchor:start;fill:#000000;fill-opacity:1;stroke:none;stroke-width:1.25981;-inkscape-stroke:none"
   x="-1174.8174"
   y="2691.4819"
   id="text212"><tspan
     sodipodi:role="line"
     x="-1174.8174"
     y="2691.4819"
     style="font-style:normal;font-variant:normal;font-weight:normal;font-stretch:normal;font-size:96px;font-family:'Noto Serif CJK HK';-inkscape-font-specification:'Noto Serif CJK HK';stroke-width:1.25981"
     id="tspan212">Favicon</tspan></text></svg>
